<svg aria-hidden="true" style="position:absolute;width:0;height:0" xmlns="http://www.w3.org/2000/svg" overflow="hidden"><defs><symbol id="logo" viewBox="0 0 98 32"><path fill="var(--color1, #10499e)" d="M76.878 0H16C7.163 0 0 7.163 0 16s7.163 16 16 16h60.878c8.837 0 16-7.163 16-16s-7.163-16-16-16z"/><path fill="var(--color2, #fff)" d="M16.062 9.834c1.087 0 2.032.183 2.833.549.801.355 1.419.87 1.854 1.545.435.664.652 1.448.652 2.352s-.218 1.688-.652 2.352c-.435.664-1.053 1.179-1.854 1.545-.801.355-1.746.532-2.833.532h-2.095v3.142h-3.4V9.831h5.495zm-.206 6.199c.698 0 1.225-.149 1.58-.446.355-.309.532-.744.532-1.305s-.177-.996-.532-1.305c-.355-.309-.881-.464-1.58-.464h-1.889v3.52h1.889zm11.703 5.975c-.996 0-1.895-.206-2.696-.618s-1.431-.984-1.889-1.717c-.446-.733-.67-1.563-.67-2.49 0-.916.223-1.74.67-2.473a4.633 4.633 0 011.872-1.7c.801-.412 1.706-.618 2.713-.618s1.912.206 2.713.618a4.496 4.496 0 011.872 1.7c.446.721.67 1.545.67 2.473s-.223 1.757-.67 2.49c-.446.733-1.07 1.305-1.872 1.717s-1.706.618-2.713.618zm0-2.593c.572 0 1.042-.195 1.408-.584.366-.401.549-.95.549-1.648 0-.687-.183-1.225-.549-1.614s-.836-.584-1.408-.584-1.042.195-1.408.584-.549.927-.549 1.614c0 .698.183 1.248.549 1.648.366.389.836.584 1.408.584zm6.766-10.302h3.262v12.741h-3.262V9.113zM41.366 32V0h40.195c8.837 0 16 7.163 16 16s-7.163 16-16 16H41.366z"/><path fill="var(--color1, #10499e)" d="M42.927 32V0h-3.122v32h3.122zM41.366 1.561h40.195V0H41.366v1.561zm40.195 0C89.535 1.561 96 8.026 96 16h1.561c0-9.699-6.302-16-16-16v1.561zM96 16c0 7.974-6.465 14.439-14.439 14.439V32c9.698 0 16-6.301 16-16H96zM81.561 30.439H41.366V32h40.195v-1.561z"/><path fill="var(--color1, #10499e)" d="M48.8 12.461v2.644h5.306v2.627H48.8v4.121h-3.4V9.833h9.427v2.627H48.8zm11.228-.068c1.545 0 2.724.355 3.537 1.065.813.698 1.219 1.774 1.219 3.228v5.168h-3.039v-1.202c-.469.904-1.385 1.357-2.747 1.357-.721 0-1.345-.126-1.872-.378s-.927-.59-1.202-1.013a2.798 2.798 0 01-.395-1.477c0-.881.338-1.563 1.013-2.043.675-.492 1.717-.738 3.125-.738h1.854c-.057-.984-.715-1.477-1.975-1.477a4.36 4.36 0 00-1.356.223 3.488 3.488 0 00-1.168.584l-1.099-2.215c.515-.343 1.139-.607 1.872-.79a8.771 8.771 0 012.232-.292zm-.121 7.555c.378 0 .71-.092.996-.275s.492-.452.618-.807v-.807h-1.408c-.95 0-1.425.315-1.425.944 0 .286.109.515.326.687s.515.258.893.258zm10.044-6.285a2.974 2.974 0 011.288-.944c.538-.218 1.15-.326 1.837-.326v2.936a6.783 6.783 0 00-.738-.052c-.698 0-1.248.189-1.648.567-.389.378-.584.956-.584 1.734v4.276h-3.262v-9.307h3.108v1.116zm16.594-1.27c1.144 0 2.054.343 2.73 1.03.687.687 1.03 1.723 1.03 3.108v5.323h-3.262v-4.791c0-.652-.126-1.133-.378-1.442-.24-.309-.584-.464-1.03-.464-.493 0-.887.172-1.185.515s-.446.864-.446 1.563v4.619h-3.262v-4.791c0-1.271-.47-1.906-1.408-1.906-.504 0-.905.172-1.202.515s-.447.864-.447 1.563v4.619h-3.262v-9.307h3.108v.979a3.186 3.186 0 011.219-.841 4.117 4.117 0 011.563-.292c.653 0 1.236.12 1.751.361s.933.607 1.253 1.099c.366-.469.83-.83 1.391-1.082s1.173-.378 1.837-.378z"/></symbol><symbol id="mobile-menu" viewBox="0 0 32 32"><path d="M30.4 27.2H1.6a1.6 1.6 0 000 3.2h28.8a1.6 1.6 0 000-3.2zM1.6 4.8h28.8a1.6 1.6 0 000-3.2H1.6a1.6 1.6 0 000 3.2zm28.8 9.6H1.6a1.6 1.6 0 000 3.2h28.8a1.6 1.6 0 000-3.2z"/></symbol><symbol fill="none" xmlns="http://www.w3.org/2000/svg" viewBox="0 0 20 18" id="product-turn"><path d="M9.977 15.371L9.454 18l8.063-5.185-8.063-4.454.448 2.483c-.626.05-2.2.09-3.77-.84-.44-.26-2.603-1.541-2.688-3.651C3.37 4.466 4.98 2.536 7.438 1.86L6.02 1.35C2.634 2.404.188 4.98.01 7.666c-.25 3.794 4.007 8.126 9.967 7.704zm-2.8-14.203l3.136 1.022-.15-.657c4.071.131 6.723 2.648 6.645 4.82-.062 1.713-1.812 2.93-2.24 3.213l4.106 2.19c.661-.964 1.562-2.664 1.269-4.6-.511-3.374-4.477-6.318-9.78-6.426l.075-.73-3.06 1.168z" fill="#000"/></symbol><symbol fill="none" xmlns="http://www.w3.org/2000/svg" viewBox="0 0 30 30" id="youtube-icon"><path d="M13.132 17.81L18.01 15l-4.88-2.81v5.62z" fill="#FA1E2B"/><path d="M15 0C6.717 0 0 6.717 0 15c0 8.283 6.717 15 15 15 8.283 0 15-6.717 15-15 0-8.283-6.717-15-15-15zm9.373 15.015s0 3.042-.386 4.51a2.349 2.349 0 01-1.652 1.651c-1.467.387-7.335.387-7.335.387s-5.852 0-7.335-.402a2.349 2.349 0 01-1.652-1.652C5.627 18.057 5.627 15 5.627 15s0-3.042.386-4.509a2.396 2.396 0 011.652-1.667C9.132 8.438 15 8.438 15 8.438s5.868 0 7.334.401c.803.216 1.436.85 1.653 1.652.401 1.467.386 4.524.386 4.524z" fill="#FA1E2B"/></symbol><symbol fill="none" xmlns="http://www.w3.org/2000/svg" viewBox="0 0 30 30" id="pdf-icon"><path d="M7.5 0a1.88 1.88 0 00-1.875 1.875v26.25A1.88 1.88 0 007.5 30h18.75a1.88 1.88 0 001.875-1.875V7.5l-7.5-7.5H7.5z" fill="#E2E5E7"/><path d="M22.5 7.5h5.625l-7.5-7.5v5.625A1.88 1.88 0 0022.5 7.5z" fill="#B0B7BD"/><path d="M28.125 13.125L22.5 7.5h5.625v5.625z" fill="#CAD1D8"/><path d="M24.375 24.375a.94.94 0 01-.938.938H2.813a.94.94 0 01-.937-.938V15a.94.94 0 01.938-.938h20.625a.94.94 0 01.937.938v9.375z" fill="#FA1E2B"/><path d="M5.962 17.763c0-.248.195-.518.509-.518h1.731c.975 0 1.853.653 1.853 1.903 0 1.186-.878 1.846-1.853 1.846H6.951v.99c0 .33-.21.516-.48.516a.505.505 0 01-.51-.517v-4.22zm.989.426v1.868h1.251c.503 0 .9-.444.9-.909 0-.524-.397-.959-.9-.959H6.951zm4.572 4.311c-.248 0-.518-.135-.518-.464v-4.258c0-.27.27-.465.518-.465h1.716c3.426 0 3.351 5.187.068 5.187h-1.784zm.472-4.272v3.358h1.244c2.024 0 2.114-3.358 0-3.358h-1.244zm5.81.06v1.192h1.912c.27 0 .54.27.54.531 0 .248-.27.45-.54.45h-1.912v1.574c0 .263-.187.464-.45.464-.33 0-.53-.201-.53-.464v-4.258c0-.27.202-.465.53-.465h2.633c.33 0 .524.196.524.465 0 .24-.195.51-.524.51h-2.183z" fill="#fff"/><path d="M23.438 25.313H5.625v.937h17.813a.94.94 0 00.937-.938v-.937a.94.94 0 01-.938.938z" fill="#CAD1D8"/></symbol><symbol fill="none" xmlns="http://www.w3.org/2000/svg" viewBox="0 0 25 17" id="product-turn-back"><path d="M22 8.32c0 2.758-4.703 4.996-10.5 4.996-5.798 0-10.5-2.238-10.5-4.997 0 1.971 3.358 3.57 7.5 3.57 4.142 0 7.5-1.599 7.5-3.57v-.714h-3l6-2.855 6 2.855h-3v.714z" fill="#000"/><path d="M2.531 4.975c0-1.835 3.968-3.323 8.86-3.323 4.891 0 8.859 1.488 8.859 3.323 0-1.311-2.833-2.373-6.328-2.373S7.594 3.664 7.594 4.975v.474h2.531L5.062 7.348 0 5.449h2.531v-.474z" fill="#000"/></symbol><symbol fill="none" xmlns="http://www.w3.org/2000/svg" viewBox="0 0 15 15" id="shopping-cart"><g clip-path="url(#clip0)" fill="#fff"><path d="M14.777 5.422a1.036 1.036 0 00-.815-.391h-2.889L9.507 1.444a.44.44 0 10-.806.352l1.413 3.235H4.886l1.413-3.235a.44.44 0 00-.806-.352L3.927 5.03H1.038c-.32 0-.617.142-.815.39a1.012 1.012 0 00-.197.861l1.543 6.739c.107.47.523.799 1.012.799h9.838a1.03 1.03 0 001.012-.8l1.543-6.738a1.012 1.012 0 00-.197-.86zM12.42 12.94H2.581a.157.157 0 01-.156-.116L.883 6.086A.134.134 0 01.91 5.97a.16.16 0 01.128-.06h2.505l-.115.263a.44.44 0 00.805.352l.269-.615h5.996l.269.615a.44.44 0 00.805-.352l-.115-.263h2.505c.07 0 .11.037.128.06.02.024.04.064.027.116l-1.542 6.739a.157.157 0 01-.156.116z"/><path d="M4.863 7.814a.44.44 0 00-.44.44v3.222a.44.44 0 00.88 0V8.253a.44.44 0 00-.44-.439zm2.637 0a.44.44 0 00-.44.44v3.222a.44.44 0 00.88 0V8.253a.44.44 0 00-.44-.439zm2.637 0a.44.44 0 00-.44.44v3.222a.44.44 0 00.88 0V8.253a.44.44 0 00-.44-.439z"/></g><defs><clipPath id="clip0"><path fill="#fff" d="M0 0h15v15H0z"/></clipPath></defs></symbol><symbol fill="none" xmlns="http://www.w3.org/2000/svg" viewBox="0 0 20 20" id="success"><path d="M10 0C4.486 0 0 4.486 0 10s4.486 10 10 10 10-4.486 10-10S15.514 0 10 0zm0 19.23C4.91 19.23.77 15.09.77 10 .77 4.91 4.91.77 10 .77c5.09 0 9.23 4.14 9.23 9.23 0 5.09-4.14 9.23-9.23 9.23z" fill="#313131"/><path d="M14.712 5.898l-5.91 6.65L5.24 9.7a.385.385 0 00-.48.6l3.846 3.077a.384.384 0 00.528-.045l6.154-6.923a.384.384 0 10-.576-.51z" fill="#0BC756"/></symbol><symbol fill="none" xmlns="http://www.w3.org/2000/svg" viewBox="0 0 25 25" id="smartphone"><g clip-path="url(#clip0)" fill="#fff"><path d="M12.5 19.817a.976.976 0 100-1.953.976.976 0 000 1.953zm2.724-14.129H9.776a.542.542 0 00-.554.527v10.3c0 .29.248.527.554.527h5.448a.542.542 0 00.554-.528V6.215a.542.542 0 00-.554-.527z"/><path d="M12.5 0C5.598 0 .002 5.597.002 12.5S5.597 25 12.501 25C19.404 25 25 19.403 25 12.5 25 5.596 19.404 0 12.5 0zm4.864 18.668a1.73 1.73 0 01-1.73 1.73H9.368a1.73 1.73 0 01-1.73-1.73V6.277c0-.955.775-1.73 1.73-1.73h6.268a1.73 1.73 0 011.729 1.73v12.391z"/></g><defs><clipPath id="clip0"><path fill="#fff" d="M0 0h25v25H0z"/></clipPath></defs></symbol><symbol fill="none" xmlns="http://www.w3.org/2000/svg" viewBox="0 0 25 25" id="iphone"><path d="M18.75 0H6.25c-.86 0-1.563.702-1.563 1.563v21.875A1.566 1.566 0 006.25 25h12.5c.863 0 1.563-.7 1.563-1.563V1.563c0-.86-.7-1.562-1.563-1.562zM12.5 23.438a1.563 1.563 0 11.001-3.127 1.563 1.563 0 01-.001 3.127zm6.25-4.688H6.25V3.125h12.5V18.75z" fill="#7B7E7B"/></symbol><symbol fill="none" xmlns="http://www.w3.org/2000/svg" viewBox="0 0 25 25" id="avatar"><path d="M12.41 13.47h.165c1.517-.025 2.744-.558 3.65-1.578 1.993-2.247 1.662-6.099 1.625-6.466-.129-2.76-1.434-4.08-2.51-4.696C14.537.27 13.6.02 12.554 0h-.088c-.574 0-1.703.093-2.785.71-1.087.615-2.412 1.935-2.542 4.716-.036.367-.367 4.219 1.626 6.466.9 1.02 2.127 1.553 3.644 1.579zM8.52 5.556c0-.016.006-.031.006-.041.17-3.712 2.806-4.111 3.934-4.111h.062c1.398.031 3.774.6 3.935 4.11a.1.1 0 00.005.042c.005.036.368 3.557-1.279 5.41-.652.735-1.522 1.098-2.666 1.108h-.052c-1.139-.01-2.013-.373-2.66-1.108-1.642-1.843-1.29-5.379-1.285-5.41z" fill="#7B7E7B"/><path d="M23.131 19.859v-.016c0-.041-.005-.082-.005-.13-.031-1.024-.099-3.421-2.345-4.187-.016-.005-.037-.01-.052-.016-2.335-.595-4.276-1.941-4.297-1.957a.698.698 0 10-.802 1.144c.087.063 2.148 1.497 4.726 2.16 1.206.429 1.341 1.718 1.377 2.898 0 .047 0 .088.005.13.006.466-.025 1.185-.108 1.6-.839.476-4.126 2.122-9.127 2.122-4.98 0-8.289-1.651-9.133-2.128-.083-.414-.119-1.133-.108-1.6 0-.04.005-.082.005-.129.036-1.18.17-2.47 1.377-2.899 2.578-.663 4.638-2.102 4.726-2.159a.698.698 0 10-.802-1.144c-.02.016-1.952 1.362-4.297 1.957a.614.614 0 00-.052.015c-2.247.772-2.314 3.169-2.345 4.189 0 .046 0 .088-.005.13v.015c-.005.269-.01 1.651.264 2.345a.665.665 0 00.27.326C2.556 22.63 6.28 25 12.507 25c6.228 0 9.95-2.377 10.105-2.475a.694.694 0 00.27-.326c.258-.689.253-2.07.248-2.34z" fill="#7B7E7B"/></symbol><symbol fill="none" xmlns="http://www.w3.org/2000/svg" viewBox="0 0 20 20" id="iphone-footer"><path d="M15 0H5c-.689 0-1.25.561-1.25 1.25v17.5c0 .69.561 1.25 1.25 1.25h10c.69 0 1.25-.56 1.25-1.25V1.25C16.25.561 15.69 0 15 0zm-5 18.75a1.25 1.25 0 110-2.5 1.25 1.25 0 010 2.5zM15 15H5V2.5h10V15z" fill="#10499E"/></symbol><symbol fill="none" xmlns="http://www.w3.org/2000/svg" viewBox="0 0 30 30" id="viber-footer"><g clip-path="url(#clip0)" fill="#8E24AA"><path d="M28.944 17.367c.895-7.534-.43-12.29-2.82-14.442h.001C22.267-.75 9.24-1.294 4.625 3.088c-2.073 2.144-2.803 5.29-2.883 9.185-.08 3.896-.175 11.195 6.627 13.175h.006l-.006 3.024s-.047 1.225.736 1.471c.895.29 1.3-.279 4.084-3.604 4.655.404 8.23-.52 8.636-.656.94-.315 6.259-1.019 7.119-8.317zm-15.296 6.846S10.7 27.887 9.785 28.84c-.3.31-.629.282-.624-.333 0-.404.023-5.02.023-5.02-5.767-1.653-5.427-7.868-5.364-11.12.062-3.252.657-5.915 2.412-7.71 4.05-3.795 15.47-2.947 18.38-.212 3.558 3.154 2.292 12.064 2.3 12.368-.732 6.092-5.042 6.479-5.834 6.742-.34.113-3.483.922-7.43.658z"/><path d="M15.277 5.372c-.48 0-.48.75 0 .756 3.734.029 6.81 2.631 6.843 7.405 0 .504.738.497.731-.006h-.001c-.04-5.144-3.398-8.127-7.573-8.155z"/><path d="M20.189 12.741c-.012.498.725.521.731.018.061-2.836-1.688-5.173-4.974-5.419-.481-.035-.531.721-.051.756 2.85.217 4.351 2.162 4.294 4.645zm-.788 3.227c-.617-.358-1.246-.135-1.506.216l-.544.704c-.276.357-.792.31-.792.31-3.768-.997-4.775-4.94-4.775-4.94s-.046-.533.298-.82l.68-.562c.34-.27.556-.92.21-1.558-.926-1.672-1.547-2.248-1.863-2.69-.333-.417-.833-.51-1.353-.23h-.011c-1.081.633-2.265 1.817-1.886 3.036.646 1.285 1.833 5.381 5.618 8.476 1.78 1.464 4.594 2.964 5.79 3.31l.01.018c1.178.392 2.323-.838 2.934-1.952v-.008c.272-.54.181-1.05-.215-1.383-.702-.685-1.762-1.441-2.595-1.927z"/><path d="M16.461 10.13c1.201.07 1.784.698 1.846 1.987.023.504.754.469.732-.035-.08-1.683-.958-2.62-2.538-2.708-.481-.028-.526.728-.04.757z"/></g><defs><clipPath id="clip0"><path fill="#fff" d="M0 0h30v30H0z"/></clipPath></defs></symbol><symbol fill="none" xmlns="http://www.w3.org/2000/svg" viewBox="0 0 20 20" id="email-footer"><path d="M18.242 2.383H1.758c-.27 0-.524.066-.753.176l8.956 8.956 2.007-1.929 7.027-7.027a1.737 1.737 0 00-.753-.176zm1.582 1.005L13.211 10l6.613 6.612a1.73 1.73 0 00.176-.753V4.141c0-.27-.066-.524-.176-.753zm-19.648 0C.066 3.617 0 3.87 0 4.14v11.72c0 .27.066.523.176.752L6.789 10 .176 3.388z" fill="#9EF9F9"/><path d="M12.383 10.829l-2.008 1.93a.584.584 0 01-.828 0l-1.93-1.93-6.613 6.612c.23.11.483.176.754.176h16.484c.27 0 .524-.066.753-.176l-6.612-6.612z" fill="#9EF9F9"/></symbol><symbol fill="none" xmlns="http://www.w3.org/2000/svg" viewBox="0 0 20 20" id="calendar-footer"><path d="M16.875 1.25h-1.25V.625a.625.625 0 10-1.25 0v.625h-2.5V.625a.625.625 0 10-1.25 0v.625h-2.5V.625a.625.625 0 10-1.25 0v.625h-2.5V.625a.625.625 0 10-1.25 0v.625h-1.25A1.877 1.877 0 000 3.125v15c0 .346.28.625.625.625h10.327A5.59 5.59 0 0110 15.625 5.631 5.631 0 0115.625 10a5.59 5.59 0 013.125.952V3.125a1.877 1.877 0 00-1.875-1.875zm-12.5 15h-1.25a.625.625 0 110-1.25h1.25a.625.625 0 110 1.25zm0-2.5h-1.25a.625.625 0 110-1.25h1.25a.625.625 0 110 1.25zm0-2.5h-1.25a.625.625 0 110-1.25h1.25a.625.625 0 110 1.25zm0-2.5h-1.25a.625.625 0 110-1.25h1.25a.625.625 0 110 1.25zm3.75 7.5h-1.25a.625.625 0 110-1.25h1.25a.625.625 0 110 1.25zm0-2.5h-1.25a.625.625 0 110-1.25h1.25a.625.625 0 110 1.25zm0-2.5h-1.25a.625.625 0 110-1.25h1.25a.625.625 0 110 1.25zm0-2.5h-1.25a.625.625 0 110-1.25h1.25a.625.625 0 110 1.25zm3.75 2.5h-1.25a.625.625 0 110-1.25h1.25a.625.625 0 110 1.25zm0-2.5h-1.25a.625.625 0 110-1.25h1.25a.625.625 0 110 1.25zm3.75 0h-1.25a.625.625 0 110-1.25h1.25a.625.625 0 110 1.25zM17.5 5H1.25V3.125c0-.345.28-.625.625-.625h1.25v.625a.625.625 0 101.25 0V2.5h2.5v.625a.625.625 0 101.25 0V2.5h2.5v.625a.625.625 0 101.25 0V2.5h2.5v.625a.625.625 0 101.25 0V2.5h1.25c.345 0 .625.28.625.625V5z" fill="#F76F0D"/><path d="M15.625 11.25a4.38 4.38 0 00-4.375 4.375A4.38 4.38 0 0015.625 20 4.38 4.38 0 0020 15.625a4.38 4.38 0 00-4.375-4.375zm2.5 5h-2.5a.625.625 0 01-.625-.625v-2.5a.625.625 0 111.25 0V15h1.875a.625.625 0 110 1.25z" fill="#F76F0D"/></symbol><symbol fill="none" xmlns="http://www.w3.org/2000/svg" viewBox="0 0 164 40" id="webmaestro-logo"><path d="M5.18 29.3c.983 0 1.753.235 2.31.704.557.47.836 1.115.836 1.936s-.279 1.467-.836 1.936c-.557.462-1.327.693-2.31.693H3.112V37h-.814v-7.7H5.18zm-.022 4.554c.763 0 1.346-.165 1.749-.495.403-.337.605-.81.605-1.419 0-.623-.202-1.1-.605-1.43-.403-.337-.986-.506-1.749-.506H3.112v3.85h2.046zm7.01 3.201c-.557 0-1.06-.125-1.507-.374a2.808 2.808 0 01-1.056-1.056 2.995 2.995 0 01-.385-1.518c0-.565.128-1.07.385-1.518a2.729 2.729 0 011.056-1.045c.447-.25.95-.374 1.507-.374.557 0 1.06.125 1.507.374.447.25.796.598 1.045 1.045.257.447.385.953.385 1.518 0 .565-.128 1.07-.385 1.518-.25.447-.598.8-1.045 1.056-.447.25-.95.374-1.507.374zm0-.693c.41 0 .777-.092 1.1-.275.33-.19.587-.458.77-.803.183-.345.275-.737.275-1.177 0-.44-.092-.832-.275-1.177a1.909 1.909 0 00-.77-.792 2.12 2.12 0 00-1.1-.286c-.41 0-.781.095-1.111.286-.323.183-.58.447-.77.792a2.468 2.468 0 00-.275 1.177c0 .44.092.832.275 1.177.19.345.447.612.77.803.33.183.7.275 1.11.275zm7.38-2.376c.41.095.725.26.945.495.228.235.341.52.341.858 0 .337-.117.638-.352.902-.227.264-.539.47-.935.616-.396.14-.832.209-1.309.209a4.39 4.39 0 01-1.232-.176 3.265 3.265 0 01-1.056-.539l.264-.583c.264.198.572.352.924.462.352.11.708.165 1.067.165.536 0 .972-.099 1.31-.297.344-.205.516-.48.516-.825 0-.308-.14-.546-.418-.715-.279-.176-.66-.264-1.144-.264h-.99v-.572h.946c.433 0 .781-.08 1.045-.242.264-.169.396-.392.396-.671 0-.308-.15-.55-.45-.726-.294-.176-.68-.264-1.156-.264a3.98 3.98 0 00-1.848.473l-.22-.605a4.584 4.584 0 012.145-.539c.44 0 .836.066 1.188.198.36.125.638.304.836.539.206.235.308.506.308.814 0 .293-.102.554-.308.781-.198.227-.47.396-.814.506zm6.04-2.816a2.94 2.94 0 011.474.374c.44.242.785.587 1.034 1.034.25.447.374.957.374 1.529 0 .58-.125 1.093-.374 1.54-.25.447-.594.796-1.034 1.045a2.968 2.968 0 01-1.474.363c-.47 0-.895-.095-1.276-.286a2.463 2.463 0 01-.924-.858v3.223h-.78v-7.92h.747v1.144c.235-.381.543-.675.924-.88a2.76 2.76 0 011.31-.308zm-.055 5.192c.403 0 .77-.092 1.1-.275.33-.19.587-.458.77-.803a2.39 2.39 0 00.286-1.177c0-.44-.095-.829-.286-1.166a1.982 1.982 0 00-.77-.803 2.159 2.159 0 00-1.1-.286c-.41 0-.78.095-1.11.286a2.06 2.06 0 00-.77.803 2.403 2.403 0 00-.276 1.166c0 .44.092.832.275 1.177.19.345.447.612.77.803.33.183.7.275 1.111.275zm7.002.693c-.557 0-1.06-.125-1.507-.374a2.809 2.809 0 01-1.056-1.056 2.994 2.994 0 01-.385-1.518c0-.565.128-1.07.385-1.518a2.729 2.729 0 011.056-1.045c.447-.25.95-.374 1.507-.374.557 0 1.06.125 1.507.374.447.25.796.598 1.045 1.045.257.447.385.953.385 1.518 0 .565-.128 1.07-.385 1.518-.25.447-.598.8-1.045 1.056-.447.25-.95.374-1.507.374zm0-.693c.41 0 .777-.092 1.1-.275.33-.19.587-.458.77-.803.183-.345.275-.737.275-1.177 0-.44-.092-.832-.275-1.177a1.909 1.909 0 00-.77-.792 2.12 2.12 0 00-1.1-.286c-.41 0-.78.095-1.11.286-.324.183-.58.447-.77.792a2.468 2.468 0 00-.276 1.177c0 .44.092.832.275 1.177.19.345.447.612.77.803.33.183.7.275 1.111.275zm7.411-5.005a2.8 2.8 0 011.43.363c.426.235.756.568.99 1.001.235.425.352.913.352 1.463 0 .565-.124 1.067-.374 1.507-.242.433-.583.77-1.023 1.012-.44.242-.946.363-1.518.363-.96 0-1.705-.337-2.233-1.012s-.792-1.606-.792-2.794c0-1.24.235-2.189.704-2.849.477-.66 1.218-1.107 2.222-1.342l2.596-.594.132.715-2.442.561c-.828.183-1.437.51-1.826.979-.388.462-.601 1.148-.638 2.057a2.59 2.59 0 01.98-1.045c.417-.257.898-.385 1.44-.385zm-.12 5.06c.403 0 .762-.092 1.077-.275.323-.19.572-.455.748-.792a2.35 2.35 0 00.275-1.144c0-.425-.088-.8-.264-1.122a1.837 1.837 0 00-.748-.748 2.127 2.127 0 00-1.089-.275c-.41 0-.777.092-1.1.275a1.929 1.929 0 00-.748.748 2.306 2.306 0 00-.264 1.122c0 .425.088.807.264 1.144.184.337.437.601.76.792.322.183.685.275 1.088.275zm6.667-1.991h-1.32V37h-.78v-5.786h.78v2.541h1.331l2.035-2.541h.847l-2.277 2.805L49.551 37h-.924l-2.134-2.574zm6.174-3.256c.756 0 1.335.19 1.738.572.404.374.605.931.605 1.672V37h-.748v-.902c-.176.3-.436.535-.78.704-.338.169-.741.253-1.21.253-.646 0-1.16-.154-1.54-.462-.382-.308-.573-.715-.573-1.221 0-.491.176-.887.528-1.188.36-.3.928-.451 1.705-.451h1.837v-.352c0-.499-.139-.876-.418-1.133-.278-.264-.685-.396-1.22-.396-.367 0-.72.062-1.057.187a2.586 2.586 0 00-.869.495l-.352-.583c.294-.25.646-.44 1.056-.572.411-.14.844-.209 1.298-.209zm-.275 5.269c.44 0 .818-.099 1.133-.297.316-.205.55-.499.704-.88v-.946h-1.815c-.99 0-1.485.345-1.485 1.034 0 .337.129.605.385.803.257.19.616.286 1.078.286zm7.576-5.225h.781V37h-.78v-5.786zm.396-1.265a.553.553 0 01-.407-.165.54.54 0 01-.165-.396c0-.147.055-.275.165-.385a.553.553 0 01.407-.165c.162 0 .297.055.407.165.11.103.165.227.165.374a.553.553 0 01-.165.407.553.553 0 01-.407.165zm8.472 1.221a2.94 2.94 0 011.474.374c.44.242.785.587 1.034 1.034.25.447.374.957.374 1.529 0 .58-.124 1.093-.374 1.54-.25.447-.594.796-1.034 1.045a2.967 2.967 0 01-1.474.363c-.47 0-.894-.095-1.276-.286a2.463 2.463 0 01-.924-.858v3.223h-.78v-7.92h.747v1.144c.235-.381.543-.675.924-.88a2.76 2.76 0 011.31-.308zm-.055 5.192c.403 0 .77-.092 1.1-.275.33-.19.587-.458.77-.803a2.39 2.39 0 00.286-1.177c0-.44-.095-.829-.286-1.166a1.982 1.982 0 00-.77-.803 2.158 2.158 0 00-1.1-.286c-.41 0-.78.095-1.11.286a2.06 2.06 0 00-.77.803 2.403 2.403 0 00-.276 1.166c0 .44.092.832.275 1.177.19.345.447.612.77.803.33.183.7.275 1.111.275zm7.002.693c-.557 0-1.06-.125-1.507-.374a2.807 2.807 0 01-1.056-1.056 2.994 2.994 0 01-.385-1.518c0-.565.129-1.07.385-1.518a2.727 2.727 0 011.056-1.045c.448-.25.95-.374 1.507-.374.558 0 1.06.125 1.507.374.447.25.796.598 1.045 1.045.257.447.385.953.385 1.518 0 .565-.128 1.07-.385 1.518-.25.447-.597.8-1.045 1.056-.447.25-.95.374-1.507.374zm0-.693c.41 0 .778-.092 1.1-.275.33-.19.587-.458.77-.803.183-.345.275-.737.275-1.177 0-.44-.091-.832-.275-1.177a1.91 1.91 0 00-.77-.792 2.12 2.12 0 00-1.1-.286c-.41 0-.78.095-1.11.286-.323.183-.58.447-.77.792a2.467 2.467 0 00-.276 1.177c0 .44.092.832.275 1.177.19.345.448.612.77.803.33.183.7.275 1.111.275zm7.38-2.376c.41.095.725.26.945.495.228.235.341.52.341.858 0 .337-.117.638-.352.902-.227.264-.539.47-.935.616-.396.14-.832.209-1.309.209a4.39 4.39 0 01-1.232-.176 3.263 3.263 0 01-1.056-.539l.264-.583c.264.198.572.352.924.462.352.11.708.165 1.067.165.536 0 .972-.099 1.31-.297.344-.205.516-.48.516-.825 0-.308-.139-.546-.418-.715-.278-.176-.66-.264-1.144-.264h-.99v-.572h.946c.433 0 .781-.08 1.045-.242.264-.169.396-.392.396-.671 0-.308-.15-.55-.45-.726-.294-.176-.679-.264-1.156-.264a3.98 3.98 0 00-1.848.473l-.22-.605a4.584 4.584 0 012.145-.539c.44 0 .836.066 1.188.198.36.125.638.304.836.539a1.2 1.2 0 01.308.814c0 .293-.102.554-.308.781-.198.227-.469.396-.814.506zm5.16.44h-1.32V37h-.78v-5.786h.78v2.541h1.331l2.035-2.541h.847l-2.277 2.805L91.381 37h-.924l-2.134-2.574zm7.272-3.256a2.94 2.94 0 011.474.374c.44.242.785.587 1.034 1.034.25.447.374.957.374 1.529 0 .58-.125 1.093-.374 1.54-.25.447-.594.796-1.034 1.045a2.967 2.967 0 01-1.474.363c-.47 0-.895-.095-1.276-.286a2.463 2.463 0 01-.924-.858v3.223h-.781v-7.92h.748v1.144c.235-.381.543-.675.924-.88a2.76 2.76 0 011.309-.308zm-.055 5.192c.403 0 .77-.092 1.1-.275.33-.19.587-.458.77-.803a2.39 2.39 0 00.286-1.177c0-.44-.095-.829-.286-1.166a1.982 1.982 0 00-.77-.803 2.158 2.158 0 00-1.1-.286c-.41 0-.781.095-1.111.286-.323.19-.58.458-.77.803a2.403 2.403 0 00-.275 1.166c0 .44.092.832.275 1.177.19.345.447.612.77.803.33.183.7.275 1.11.275zm9.371-5.148l-2.893 6.479c-.235.543-.506.928-.814 1.155-.308.227-.679.341-1.111.341-.279 0-.54-.044-.781-.132a1.692 1.692 0 01-.627-.396l.363-.583c.293.293.645.44 1.056.44.264 0 .487-.073.671-.22.19-.147.366-.396.528-.748l.253-.561-2.585-5.775h.814l2.178 4.917 2.178-4.917h.77zm5.308.693h-2.189V37h-.781v-5.093h-2.189v-.693h5.159v.693zm3.23 2.519h-1.32V37h-.781v-5.786h.781v2.541h1.331l2.035-2.541h.847l-2.277 2.805L116.507 37h-.924l-2.134-2.574zm6.174-3.256c.756 0 1.335.19 1.738.572.404.374.605.931.605 1.672V37h-.748v-.902a1.79 1.79 0 01-.781.704c-.337.169-.74.253-1.21.253-.645 0-1.158-.154-1.54-.462-.381-.308-.572-.715-.572-1.221 0-.491.176-.887.528-1.188.36-.3.928-.451 1.705-.451h1.837v-.352c0-.499-.139-.876-.418-1.133-.278-.264-.685-.396-1.221-.396a3.02 3.02 0 00-1.056.187 2.589 2.589 0 00-.869.495l-.352-.583c.294-.25.646-.44 1.056-.572.411-.14.844-.209 1.298-.209zm-.275 5.269c.44 0 .818-.099 1.133-.297.316-.205.55-.499.704-.88v-.946h-1.815c-.99 0-1.485.345-1.485 1.034 0 .337.129.605.385.803.257.19.616.286 1.078.286zm9.996.616a3.15 3.15 0 01-1.54-.374 2.733 2.733 0 01-1.056-1.045 3.063 3.063 0 01-.385-1.529c0-.565.129-1.07.385-1.518a2.733 2.733 0 011.056-1.045 3.15 3.15 0 011.54-.374c.499 0 .943.099 1.331.297.396.19.708.473.935.847l-.583.396a1.774 1.774 0 00-.726-.638 2.107 2.107 0 00-.957-.22 2.26 2.26 0 00-1.133.286c-.33.183-.59.447-.781.792a2.471 2.471 0 00-.275 1.177c0 .447.092.843.275 1.188.191.337.451.601.781.792a2.34 2.34 0 001.133.275 2.2 2.2 0 00.957-.209 1.78 1.78 0 00.726-.638l.583.396c-.227.374-.539.66-.935.858-.396.19-.839.286-1.331.286zm5.77-5.885c.755 0 1.334.19 1.738.572.403.374.605.931.605 1.672V37h-.748v-.902c-.176.3-.437.535-.781.704-.338.169-.741.253-1.21.253-.646 0-1.159-.154-1.54-.462-.382-.308-.572-.715-.572-1.221 0-.491.176-.887.528-1.188.359-.3.927-.451 1.705-.451h1.837v-.352c0-.499-.14-.876-.418-1.133-.279-.264-.686-.396-1.221-.396-.367 0-.719.062-1.056.187a2.58 2.58 0 00-.869.495l-.352-.583c.293-.25.645-.44 1.056-.572a3.99 3.99 0 011.298-.209zm-.275 5.269c.44 0 .817-.099 1.133-.297a1.84 1.84 0 00.704-.88v-.946h-1.815c-.99 0-1.485.345-1.485 1.034a.96.96 0 00.385.803c.256.19.616.286 1.078.286zm4.697-5.225h.781v4.598l3.861-4.598h.693V37h-.781v-4.598L140.24 37h-.704v-5.786zm2.629-.836c-.499 0-.895-.125-1.188-.374-.294-.25-.444-.601-.451-1.056h.561c.007.286.11.517.308.693.198.169.454.253.77.253.315 0 .572-.084.77-.253a.904.904 0 00.319-.693h.561c-.008.455-.162.807-.462 1.056-.294.25-.69.374-1.188.374zm9.014 1.529h-2.189V37h-.781v-5.093h-2.189v-.693h5.159v.693zm1.129-.693h.781V37h-.781v-5.786zm.396-1.265a.554.554 0 01-.407-.165.54.54 0 01-.165-.396c0-.147.055-.275.165-.385a.554.554 0 01.407-.165c.162 0 .297.055.407.165.11.103.165.227.165.374a.553.553 0 01-.165.407.552.552 0 01-.407.165zm6.297 4.059c.785.183 1.177.656 1.177 1.419 0 .506-.187.895-.561 1.166-.374.271-.931.407-1.672.407h-2.629v-5.786h2.552c.66 0 1.177.128 1.551.385.374.257.561.623.561 1.1 0 .315-.088.587-.264.814-.169.22-.407.385-.715.495zm-2.926-.22h1.738c.447 0 .788-.084 1.023-.253.242-.169.363-.414.363-.737s-.121-.565-.363-.726c-.235-.161-.576-.242-1.023-.242h-1.738v1.958zm1.837 2.596c.499 0 .873-.08 1.122-.242.249-.161.374-.414.374-.759 0-.345-.114-.598-.341-.759-.227-.169-.587-.253-1.078-.253h-1.914v2.013h1.837z" fill="#000"/><g clip-path="url(#clip0)"><path d="M155.627 22.423c-4.312 0-7.373-3.335-7.373-7.607 0-4.274 3.061-7.608 7.373-7.608 4.313 0 7.373 3.335 7.373 7.607 0 4.273-3.06 7.608-7.373 7.608zM9.857 11.022L6.101 22.223H4.948L0 7.468h1.888l3.676 11.021L9.261 7.468h1.192l3.717 11.021 3.656-11.021h1.908l-4.968 14.755h-1.133L9.857 11.022zm12.42 2.955h11.15c-.338-2.995-2.484-5.212-5.565-5.212-3.08 0-5.226 2.217-5.584 5.212zm0 1.597c.28 3.035 2.445 5.311 5.585 5.311a6.312 6.312 0 003.697-1.178c.417-.3.914-.738 1.192-1.178l.1-.16h1.927l-.278.54c-.338.659-.974 1.338-1.55 1.817-1.451 1.218-3.22 1.757-5.108 1.757-4.352 0-7.392-3.355-7.392-7.648 0-4.293 3.04-7.667 7.392-7.667 1.65 0 3.26.52 4.571 1.538a7.252 7.252 0 012.147 2.755 8.4 8.4 0 01.675 3.754l-.02.34H22.278v.02zm17.45-.758c0 3.354 2.186 6.05 5.624 6.05 3.438 0 5.644-2.716 5.644-6.05 0-3.335-2.186-6.05-5.644-6.05s-5.624 2.715-5.624 6.05zm0 4.692v2.715h-1.77V0h1.77v10.143c.218-.32.477-.619.715-.878 1.331-1.378 3-2.097 4.909-2.097 4.352 0 7.392 3.355 7.392 7.647 0 4.313-3.06 7.648-7.392 7.648-1.868 0-3.518-.68-4.85-2.017a8.825 8.825 0 01-.774-.938zM65.86 9.364c1.073-1.437 2.623-2.156 4.392-2.156 1.272 0 2.484.34 3.498 1.118 1.828 1.418 2.424 3.794 2.424 6.01v7.847h-3.08v-7.527c0-1.977-.438-4.513-2.922-4.513s-2.921 2.516-2.921 4.513v7.527h-3.06v-7.527c0-1.977-.438-4.513-2.922-4.513s-2.921 2.516-2.921 4.513v7.527h-3.08V7.448h3.08v.599c.894-.6 1.927-.859 3-.859 1.809.02 3.419.699 4.512 2.176zm52.942 10.124c1.093 0 3.16-.22 3.16-1.697 0-.2-.02-.42-.139-.6-.437-.758-2.365-1.038-3.16-1.158-2.544-.339-5.704-1.297-5.704-4.452 0-.62.12-1.218.378-1.757.974-2.057 3.378-2.636 5.445-2.636 1.669 0 3.398.42 4.611 1.657.755.78.973 1.418 1.172 2.277h-3.14a1.55 1.55 0 00-.278-.32c-.616-.539-1.55-.679-2.345-.679-.954 0-2.762.16-2.762 1.458 0 .12.019.26.079.38.338.678 2.166.998 2.842 1.097 2.782.42 6.061 1.238 6.061 4.713 0 .818-.198 1.597-.656 2.296-1.172 1.837-3.557 2.356-5.584 2.356-1.769 0-3.617-.42-4.948-1.697-.517-.5-1.034-1.238-1.213-1.937l-.099-.44h3.22c.119.14.258.28.357.36.755.599 1.789.779 2.703.779zm10.274-12.02V3.714h3.081v3.754h4.054v2.915h-4.054v5.67c0 .78 0 1.598.139 2.357.04.26.139.698.358.878.178.16.536.18.775.18.497 0 .993-.1 1.49-.2l1.312-.3v2.896l-.775.24c-.676.2-1.451.299-2.147.299-.953 0-1.888-.2-2.643-.819-.715-.599-1.073-1.417-1.291-2.316-.239-1.058-.279-2.136-.279-3.215v-5.67h-2.842V7.468h2.822zm13.117.479c.854-.54 1.828-.759 2.842-.759.695 0 1.45.1 2.126.3l.755.24v3.014l-1.371-.42a5.508 5.508 0 00-1.51-.199c-.656 0-1.292.14-1.769.62-.934.938-1.033 2.934-1.033 4.172v7.248h-3.061V7.448h3.061v.499h-.04zm-51.969.779V7.468h3.06v14.735h-3.06v-1.278c-1.232.999-2.702 1.498-4.312 1.498-4.313 0-7.373-3.335-7.373-7.607 0-4.274 3.06-7.608 7.373-7.608 1.61 0 3.08.5 4.312 1.518zm0 6.09c0-2.596-1.63-4.693-4.312-4.693-2.683 0-4.313 2.097-4.313 4.673 0 2.575 1.63 4.672 4.313 4.672s4.312-2.077 4.312-4.652zm8.745 1.417c.496 1.977 2.046 3.255 4.133 3.255 1.034 0 2.007-.28 2.842-.899.099-.06.199-.14.298-.24h3.716l-.218.44c-.358.699-.974 1.358-1.57 1.857-1.431 1.198-3.2 1.757-5.068 1.757-4.312 0-7.373-3.335-7.373-7.607 0-4.273 3.06-7.628 7.373-7.628 1.65 0 3.24.52 4.551 1.538a7.25 7.25 0 012.146 2.755c.736 1.637.716 2.995.636 4.732H98.969v.04zm.04-2.935h8.187c-.537-1.917-2.067-3.155-4.094-3.155-2.027-.02-3.557 1.238-4.094 3.155zm60.911 1.518c0-2.576-1.63-4.673-4.313-4.673s-4.312 2.097-4.312 4.672c0 2.576 1.629 4.673 4.312 4.673 2.683 0 4.313-2.097 4.313-4.672z" fill="#000"/></g><defs><clipPath id="clip0"><path fill="#fff" d="M0 0h163v22.483H0z"/></clipPath></defs></symbol></defs></svg>